<svg width="28" height="28" fill="none" xmlns="http://www.w3.org/2000/svg"><circle cx="14" cy="14" r="11.454" fill="#fff"/><path d="M13.75 1.75c-6.627 0-12 5.373-12 12s5.373 12 12 12 12-5.373 12-12-5.373-12-12-12zm5.143 12.643a.215.215 0 01-.214.214h-4.072v4.072a.215.215 0 01-.214.214h-1.286a.215.215 0 01-.214-.214v-4.072H8.82a.215.215 0 01-.214-.214v-1.286c0-.118.097-.214.214-.214h4.072V8.82c0-.117.096-.214.214-.214h1.286c.118 0 .214.097.214.214v4.072h4.072c.117 0 .214.096.214.214v1.286z" fill="#000"/></svg>