<svg width="27" height="27" fill="none" xmlns="http://www.w3.org/2000/svg"><circle cx="13.5" cy="13.5" r="11.046" fill="#fff"/><path d="M13.5 1.688C6.977 1.688 1.687 6.976 1.687 13.5S6.978 25.313 13.5 25.313c6.523 0 11.813-5.29 11.813-11.813 0-6.523-5.29-11.813-11.813-11.813zm5.063 12.445a.212.212 0 01-.211.21h-4.008v4.009a.21.21 0 01-.211.21h-1.266a.212.212 0 01-.21-.21v-4.008h-4.01a.212.212 0 01-.21-.211v-1.266a.21.21 0 01.21-.21h4.008v-4.01a.21.21 0 01.211-.21h1.266a.21.21 0 01.21.21v4.008h4.009a.21.21 0 01.21.211v1.266z" fill="#000"/></svg>